Coordinates
version=1
nRows=13
nColumns=40
inDegrees=yes

Units are S.I. units (second, meters, Newtons, ...)
Angles are in degrees.

endheader
time	pelvis_tilt	pelvis_list	pelvis_rotation	pelvis_tx	pelvis_ty	pelvis_tz	hip_flexion_r	hip_adduction_r	hip_rotation_r	knee_angle_r	knee_angle_r_beta	ankle_angle_r	subtalar_angle_r	mtp_angle_r	hip_flexion_l	hip_adduction_l	hip_rotation_l	knee_angle_l	knee_angle_l_beta	ankle_angle_l	subtalar_angle_l	mtp_angle_l	lumbar_extension	lumbar_bending	lumbar_rotation	arm_flex_r	arm_add_r	arm_rot_r	elbow_flex_r	pro_sup_r	wrist_flex_r	wrist_dev_r	arm_flex_l	arm_add_l	arm_rot_l	elbow_flex_l	pro_sup_l	wrist_flex_l	wrist_dev_l
      5.12750000	     -4.11783424	     -4.58177077	      2.29272279	      1.03819588	      0.91121196	      0.45758883	     -3.54337373	     -1.64468733	    -14.51173169	     27.46268582	     27.46268582	     15.99436954	     -0.40143796	    -10.44922263	     30.96200004	     -4.91406315	     -3.06118958	     29.31074326	     29.31074326	      6.05817789	    -15.39029383	      4.55611216	     -6.84978806	      5.28468345	      3.87193846	     38.69826764	    -14.52701139	     -2.75415944	    101.30113459	     44.26331008	      0.00000000	      0.00000000	    -15.00667164	     -6.32616092	     17.59349303	     27.09488288	     43.68516195	      0.00000000	      0.00000000
      5.13885714	     -4.52193573	     -4.10565644	      1.84117688	      1.03856517	      0.91231638	      0.45522883	     -1.42269103	     -2.74257519	    -13.31988336	     31.21684229	     31.21684229	     12.46266373	     -4.51902702	    -16.69386503	     30.53577610	     -4.59377160	     -4.04433537	     29.26498810	     29.26498810	      7.08300910	    -14.67277387	      4.57776856	     -6.44486680	      4.75965293	      4.57478812	     36.36920026	    -15.14406656	     -3.41980464	    102.24570634	     44.32413783	      0.00000000	      0.00000000	    -13.27471585	     -6.22955444	     16.14509600	     26.02932551	     44.09190711	      0.00000000	      0.00000000
      5.15021429	     -4.48137939	     -3.86686984	      1.59592564	      1.03906386	      0.91426178	      0.45270673	      0.17590677	     -3.70801661	    -13.02110197	     35.08473468	     35.08473468	     10.90169404	     -5.99665145	    -16.70250462	     29.50975251	     -4.37935375	     -4.65218142	     28.91089382	     28.91089382	      7.79328662	    -14.16307577	      4.16265280	     -6.48765936	      4.58257773	      4.22164065	     34.72113894	    -14.95409456	     -3.06489515	    101.60329446	     44.33379272	      0.00000000	      0.00000000	    -12.23503298	     -6.40433782	     15.93498606	     26.35902092	     44.15441410	      0.00000000	      0.00000000
      5.16157143	     -4.49357585	     -3.67247727	      1.36198632	      1.03927788	      0.91606318	      0.45039234	      1.98233111	     -4.54234978	    -12.60399559	     39.01626970	     39.01626970	      9.26398054	     -7.76249432	    -16.33128922	     28.53302039	     -4.22980758	     -5.33207320	     28.49177559	     28.49177559	      8.43455941	    -13.50557512	      3.67897486	     -6.49607371	      4.43846139	      3.89993977	     32.93766009	    -14.82486490	     -2.71251300	    100.89383949	     44.34469809	      0.00000000	      0.00000000	    -11.07962052	     -6.64449661	     15.65522424	     26.73103360	     44.22934569	      0.00000000	      0.00000000
      5.17292857	     -4.50675675	     -3.48496396	      1.14064821	      1.03922242	      0.91776255	      0.44824652	      3.89480293	     -5.30308548	    -12.17052049	     42.91384511	     42.91384511	      7.70313557	     -9.53050988	    -15.58077723	     27.55704015	     -4.10015728	     -6.06357777	     28.02170780	     28.02170780	      8.98468716	    -12.71989956	      3.16601369	     -6.53602715	      4.30774546	      3.57100207	     31.06367187	    -14.71201362	     -2.35062857	    100.10149929	     44.35708759	      0.00000000	      0.00000000	     -9.83948624	     -6.95470975	     15.31987786	     27.14114379	     44.31321067	      0.00000000	      0.00000000
      5.18428571	     -4.54127541	     -3.35021406	      0.93987135	      1.03894697	      0.91930539	      0.44633053	      5.90011052	     -5.92028210	    -11.71712932	     46.70130727	     46.70130727	      6.36230767	    -11.17186583	    -14.39409319	     26.60311289	     -4.03385291	     -6.82140637	     27.51011892	     27.51011892	      9.52463713	    -11.83285066	      2.58553562	     -6.56825137	      4.19245182	      3.24406494	     29.12951770	    -14.65532218	     -1.99696497	     99.18655303	     44.37378851	      0.00000000	      0.00000000	     -8.54213784	     -7.30985206	     14.90407943	     27.59585527	     44.41036851	      0.00000000	      0.00000000
      5.19564286	     -4.53919261	     -3.33107051	      0.74174005	      1.03846363	      0.92072756	      0.44458642	      8.15416693	     -6.37921687	    -11.25442669	     50.95206483	     50.95206483	      7.95469301	    -10.80229030	     -5.37445571	     25.62967068	     -4.13494434	     -7.66442866	     26.96221254	     26.96221254	      9.51310220	    -10.84664195	      0.51575699	     -6.65501592	      4.22397275	      2.82180152	     27.31347817	    -14.58692133	     -1.55480541	     97.79250901	     44.47600341	      0.00000000	      0.00000000	     -7.23201436	     -7.23251800	     11.26480812	     28.06414605	     45.10160847	      0.00000000	      0.00000000
      5.20700000	     -4.52762003	     -3.13184325	      0.59463813	      1.03776956	      0.92207235	      0.44277384	     10.10855945	     -7.03021255	    -11.01057265	     54.18664128	     54.18664128	      6.84141264	    -11.89668954	     -5.06579727	     24.66053730	     -3.92299868	     -8.25173282	     26.43117143	     26.43117143	      9.97951516	    -10.17112244	      0.26774434	     -6.80786028	      4.06793975	      2.30830807	     25.30513684	    -14.37185036	     -1.11719689	     96.84006718	     44.48922937	      0.00000000	      0.00000000	     -5.79701367	     -7.72368337	     10.96574721	     28.53007238	     45.17372196	      0.00000000	      0.00000000
      5.21835714	     -4.52012401	     -3.10225319	      0.42257341	      1.03696241	      0.92328610	      0.44123453	     12.16780479	     -7.38575238	    -10.67464640	     57.32481623	     57.32481623	      7.05323878	    -12.25795515	     -1.46222635	     23.77226586	     -4.03686110	     -9.18749679	     26.05502281	     26.05502281	     10.49201857	     -8.74991235	     -0.61148575	     -6.92627414	      4.07912293	      1.83899621	     23.48595615	    -14.19274528	     -0.83084205	     94.89777103	     44.57774784	      0.00000000	      0.00000000	     -4.31545754	     -8.02681249	      9.15352330	     29.05093518	     45.49491179	      0.00000000	      0.00000000
      5.22971429	     -4.54949229	     -2.91988830	      0.27824087	      1.03594008	      0.92435247	      0.43956515	     14.16994655	     -7.94451089	    -10.46696904	     59.91728584	     59.91728584	      6.41903351	    -12.79273972	     -1.32836886	     22.88216228	     -3.76651859	     -9.54453294	     25.50479994	     25.50479994	     10.87671566	     -8.39898556	     -0.72146612	     -7.06260638	      3.95910686	      1.41127576	     21.32484743	    -14.16066504	     -0.38118463	     93.74357904	     44.59611403	      0.00000000	      0.00000000	     -2.76585758	     -8.58113129	      8.84606392	     29.61296302	     45.56580334	      0.00000000	      0.00000000
      5.24107143	     -4.59045307	     -2.78685871	      0.10450061	      1.03485824	      0.92533892	      0.43804008	     16.16356870	     -8.38250800	    -10.22966257	     62.10746428	     62.10746428	      6.01767363	    -13.08893045	     -1.08615214	     22.01473326	     -3.57523398	     -9.95706650	     24.96964317	     24.96964317	     11.29213600	     -7.93681932	     -0.93637444	     -7.17758760	      3.89042978	      1.16463638	     19.14618926	    -14.30420951	     -0.07107533	     92.13454500	     44.63432195	      0.00000000	      0.00000000	     -1.09972994	     -9.13069787	      8.47732568	     30.25780612	     45.64573412	      0.00000000	      0.00000000
      5.25242857	     -4.58987951	     -2.70317769	     -0.06000778	      1.03373722	      0.92628730	      0.43662336	     18.06297948	     -8.72739628	    -10.03480066	     63.86027403	     63.86027403	      5.77471503	    -13.18619323	     -0.91703449	     21.14632564	     -3.42570939	    -10.29863814	     24.49926775	     24.49926775	     11.67914639	     -7.55661390	     -1.16409624	     -7.33758194	      3.89597673	      0.87341589	     16.94937428	    -14.31712550	      0.19519450	     90.39425639	     44.67736189	      0.00000000	      0.00000000	      0.62357312	     -9.72622401	      8.12261787	     30.90173764	     45.72225590	      0.00000000	      0.00000000
      5.26378571	     -4.58971206	     -2.65395496	     -0.23915840	      1.03255045	      0.92713523	      0.43535511	     19.92292646	     -8.98165285	     -9.84497499	     65.16883316	     65.16883316	      5.60931618	    -13.13498430	     -0.84198297	     20.28926499	     -3.29810298	    -10.55381942	     24.02472682	     24.02472682	     12.05502917	     -7.28416971	     -1.38191010	     -7.51617187	      3.92646905	      0.60867210	     14.73372933	    -14.30508772	      0.41474921	     88.48909720	     44.72638898	      0.00000000	      0.00000000	      2.40889015	    -10.35939955	      7.78384014	     31.56280354	     45.79582297	      0.00000000	      0.00000000
